<svg width="25" height="25" viewBox="0 0 25 25" fill="none" xmlns="http://www.w3.org/2000/svg">
<path d="M19.4896 20.3125C18.625 21.6042 17.7083 22.8646 16.3125 22.8855C14.9167 22.9167 14.4687 22.0625 12.8854 22.0625C11.2917 22.0625 10.8021 22.8646 9.47916 22.9167C8.11458 22.9688 7.08333 21.5417 6.20833 20.2813C4.42708 17.7084 3.06249 12.9688 4.89583 9.78129C5.80208 8.19796 7.42708 7.19796 9.18749 7.16671C10.5208 7.14587 11.7917 8.07296 12.6146 8.07296C13.4271 8.07296 14.9687 6.95837 16.5833 7.12504C17.2604 7.15629 19.1562 7.39587 20.375 9.18754C20.2812 9.25004 18.1146 10.5209 18.1354 13.1563C18.1667 16.3021 20.8958 17.3542 20.9271 17.3646C20.8958 17.4375 20.4896 18.8646 19.4896 20.3125ZM13.5417 3.64587C14.3021 2.78129 15.5625 2.12504 16.6042 2.08337C16.7396 3.30212 16.25 4.53129 15.5208 5.40629C14.8021 6.29171 13.6146 6.97921 12.4479 6.88546C12.2917 5.68754 12.875 4.43754 13.5417 3.64587Z" fill="#3AA194"/>
</svg>
