<svg width="25" height="25" viewBox="0 0 25 25" fill="none" xmlns="http://www.w3.org/2000/svg">
<path d="M17.0571 3.38525C18.2648 3.38886 19.4219 3.87019 20.2759 4.72413C21.1298 5.57807 21.6111 6.73523 21.6147 7.94287V17.0571C21.6111 18.2648 21.1298 19.4219 20.2759 20.2759C19.4219 21.1298 18.2648 21.6111 17.0571 21.6147H7.94287C6.73523 21.6111 5.57807 21.1298 4.72413 20.2759C3.87019 19.4219 3.38886 18.2648 3.38525 17.0571V7.94287C3.38886 6.73523 3.87019 5.57807 4.72413 4.72413C5.57807 3.87019 6.73523 3.38886 7.94287 3.38525H17.0571ZM17.0571 1.5625H7.94287C4.43359 1.5625 1.5625 4.43359 1.5625 7.94287V17.0571C1.5625 20.5664 4.43359 23.4375 7.94287 23.4375H17.0571C20.5664 23.4375 23.4375 20.5664 23.4375 17.0571V7.94287C23.4375 4.43359 20.5664 1.5625 17.0571 1.5625Z" fill="#3AA194"/>
<path d="M18.4243 7.94336C18.1539 7.94336 17.8896 7.86318 17.6648 7.71295C17.4399 7.56272 17.2647 7.34919 17.1612 7.09937C17.0577 6.84955 17.0306 6.57466 17.0834 6.30945C17.1362 6.04424 17.2664 5.80063 17.4576 5.60942C17.6488 5.41822 17.8924 5.28801 18.1576 5.23526C18.4228 5.1825 18.6977 5.20958 18.9475 5.31306C19.1973 5.41654 19.4109 5.59177 19.5611 5.8166C19.7113 6.04144 19.7915 6.30577 19.7915 6.57617C19.7919 6.75582 19.7568 6.93378 19.6882 7.09983C19.6196 7.26588 19.519 7.41675 19.3919 7.54378C19.2649 7.67081 19.114 7.7715 18.948 7.84008C18.7819 7.90865 18.604 7.94375 18.4243 7.94336ZM12.5 8.85449C13.2211 8.85449 13.926 9.06833 14.5256 9.46895C15.1252 9.86958 15.5925 10.439 15.8685 11.1052C16.1444 11.7714 16.2166 12.5045 16.0759 13.2118C15.9353 13.919 15.588 14.5687 15.0781 15.0786C14.5682 15.5885 13.9186 15.9357 13.2113 16.0764C12.504 16.2171 11.771 16.1449 11.1047 15.8689C10.4385 15.593 9.86909 15.1257 9.46847 14.5261C9.06784 13.9265 8.85401 13.2216 8.85401 12.5005C8.85504 11.5338 9.2395 10.6071 9.92304 9.92352C10.6066 9.23999 11.5333 8.85553 12.5 8.85449ZM12.5 7.03174C11.4184 7.03174 10.3611 7.35247 9.46173 7.95339C8.5624 8.5543 7.86145 9.4084 7.44754 10.4077C7.03362 11.407 6.92532 12.5066 7.13633 13.5674C7.34735 14.6282 7.86819 15.6027 8.63301 16.3675C9.39783 17.1323 10.3723 17.6531 11.4331 17.8642C12.4939 18.0752 13.5935 17.9669 14.5928 17.553C15.5921 17.139 16.4462 16.4381 17.0471 15.5388C17.648 14.6394 17.9688 13.5821 17.9688 12.5005C17.9688 11.0501 17.3926 9.65909 16.367 8.6335C15.3414 7.60791 13.9504 7.03174 12.5 7.03174Z" fill="#3AA194"/>
</svg>
