<svg width="25" height="25" viewBox="0 0 25 25" fill="none" xmlns="http://www.w3.org/2000/svg">
<path d="M18.6458 11.3542C15.3125 9.37504 9.73959 9.16671 6.56251 10.1563C6.04168 10.3125 5.52084 10 5.36459 9.53129C5.20834 9.01046 5.52084 8.48962 5.98959 8.33337C9.68751 7.23962 15.7813 7.44796 19.6354 9.73963C20.1042 10 20.2604 10.625 20 11.0938C19.7396 11.4584 19.1146 11.6146 18.6458 11.3542ZM18.5417 14.2709C18.2813 14.6355 17.8125 14.7917 17.4479 14.5313C14.6354 12.8125 10.3646 12.2917 7.08334 13.3334C6.66668 13.4375 6.19793 13.2292 6.09376 12.8125C5.98959 12.3959 6.19793 11.9271 6.61459 11.823C10.4167 10.6771 15.1042 11.25 18.3333 13.2292C18.6458 13.3855 18.8021 13.9063 18.5417 14.2709ZM17.2917 17.1355C17.0833 17.448 16.7188 17.5521 16.4063 17.3438C13.9583 15.8334 10.8854 15.5209 7.23959 16.3542C6.87501 16.4584 6.56251 16.198 6.45834 15.8855C6.35418 15.5209 6.61459 15.2084 6.92709 15.1042C10.8854 14.2188 14.3229 14.5834 17.0313 16.25C17.3958 16.4063 17.4479 16.823 17.2917 17.1355ZM12.5 2.08337C11.1321 2.08337 9.77753 2.35281 8.51372 2.8763C7.24992 3.39978 6.10159 4.16707 5.13431 5.13435C3.18081 7.08785 2.08334 9.73737 2.08334 12.5C2.08334 15.2627 3.18081 17.9122 5.13431 19.8657C6.10159 20.833 7.24992 21.6003 8.51372 22.1238C9.77753 22.6473 11.1321 22.9167 12.5 22.9167C15.2627 22.9167 17.9122 21.8192 19.8657 19.8657C21.8192 17.9122 22.9167 15.2627 22.9167 12.5C22.9167 11.1321 22.6472 9.77756 22.1238 8.51376C21.6003 7.24995 20.833 6.10162 19.8657 5.13435C18.8984 4.16707 17.7501 3.39978 16.4863 2.8763C15.2225 2.35281 13.8679 2.08337 12.5 2.08337Z" fill="#3AA194"/>
</svg>
